<svg width="60" height="60" viewBox="0 0 60 60" fill="none" xmlns="http://www.w3.org/2000/svg">
<path fill-rule="evenodd" clip-rule="evenodd" d="M30 52.5C42.4264 52.5 52.5 42.4264 52.5 30C52.5 17.5736 42.4264 7.5 30 7.5C17.5736 7.5 7.5 17.5736 7.5 30C7.5 42.4264 17.5736 52.5 30 52.5ZM30 14C30.5523 14 31 14.4477 31 15V22.5C31 23.0523 30.5523 23.5 30 23.5C29.4477 23.5 29 23.0523 29 22.5V15C29 14.4477 29.4477 14 30 14ZM39.8995 18.6863C40.29 18.2958 40.9232 18.2958 41.3137 18.6863C43.5513 20.924 45.0752 23.7748 45.6926 26.8785C46.3099 29.9822 45.9931 33.1993 44.782 36.1229C43.571 39.0466 41.5203 41.5454 38.8891 43.3035C36.2579 45.0616 33.1645 46 30 46C26.8355 46 23.7421 45.0616 21.1109 43.3035C18.4797 41.5454 16.429 39.0466 15.218 36.1229C14.0069 33.1993 13.6901 29.9822 14.3074 26.8785C14.9248 23.7748 16.4487 20.924 18.6863 18.6863C19.0768 18.2958 19.71 18.2958 20.1005 18.6863C20.491 19.0768 20.491 19.71 20.1005 20.1005C18.1426 22.0585 16.8092 24.553 16.269 27.2687C15.7288 29.9845 16.006 32.7994 17.0657 35.3575C18.1253 37.9157 19.9197 40.1022 22.222 41.6406C24.5243 43.1789 27.2311 44 30 44C32.7689 44 35.4757 43.1789 37.778 41.6406C40.0803 40.1022 41.8747 37.9157 42.9343 35.3575C43.994 32.7994 44.2712 29.9845 43.731 27.2687C43.1908 24.553 41.8574 22.0584 39.8995 20.1005C39.509 19.71 39.509 19.0768 39.8995 18.6863Z" fill="white"/>
</svg>
